<!-- Generator: Adobe Illustrator 23.0.4, SVG Export Plug-In  -->
<svg version="1.1" xmlns="http://www.w3.org/2000/svg" xmlns:xlink="http://www.w3.org/1999/xlink" x="0px" y="0px" width="458.6px"
	 height="213.2px" viewBox="0 0 458.6 213.2" style="enable-background:new 0 0 458.6 213.2;" xml:space="preserve">
<style type="text/css">
	.st0{fill:#FFFFFF;}
	.st1{fill:none;stroke:#FFFFFF;stroke-width:0.692;}
</style>
<defs>
</defs>
<g>
	<path class="st0" d="M45.5,13.5c-0.3,0-0.5,0.6-0.5,1.4V65c0,9.4,0.6,12.2,6.9,12.2c0.5,0,1.1-0.1,2-0.1c2,0,3,0.5,3,1.8
		c0,1.4-1.4,2.2-4.2,2.2c-3,0-6.7-0.5-10.9-0.5c-3.8,0-7.2,0.5-10,0.5c-2.7,0-3.9-0.8-3.9-2.2c0-1.3,0.9-1.8,2.9-1.8h1.4
		c6.6,0,7.1-3.5,7.1-13.7V10.1c0-4.2-0.4-5.4-3.8-6c-4.3-0.8-6.7,0.1-6.7-2.2c0-1.2,0.8-1.8,2.3-1.8h20.7c0.8,0,1.4,0.1,2.3,1.3
		l42.2,55.8c0.1,0.1,0.3,0.1,0.4,0.1c0.3,0,0.5-0.6,0.5-1.4V15.8c0-3.8,0-6.7-0.5-8.7c-0.6-2.7-3.5-3.2-8.7-3.2
		c-1.6,0-2.8-0.8-2.8-1.8c0-1.2,1.3-1.9,4-1.9c3.2,0,6.8,0.4,10.9,0.4c4.2,0,7.4-0.5,9.7-0.5c2.3,0,3.5,0.9,3.5,2.1
		c0,1.3-0.6,1.7-2,1.7h-1.9c-5.8,0-6.3,3.7-6.3,13v64.5c0,1.7-1.1,3.2-2.5,3.2c-0.9,0-1.8-0.6-2.8-2.1l-52-68.8
		C45.7,13.5,45.6,13.5,45.5,13.5"/>
	<path class="st0" d="M128.9,92.1c-7.6,8.6-14.9,13-21.5,13c-5.6,0-9.1-3.2-9.1-8.3c0-3.8,3.2-6.9,7.2-6.9c1.8,0,3.7,0.9,5.3,2.9
		c1.8,2.1,2.8,5,5.7,5c5.2,0,8.6-8.1,8.6-23.7V10.2c0-4.5-0.5-5.4-4.2-6c-4.2-0.8-6.7,0.1-6.7-2.2c0-1,0.9-1.8,2.4-1.8
		c1.5,0,6.6,1,15.5,1c9,0,14.1-1,15.7-1c1.5,0,2.4,0.8,2.4,1.8c0,2.3-2.5,1.4-6.7,2.2c-3.7,0.6-4.2,1.5-4.2,6v54.3
		C139.4,75.5,136.2,83.9,128.9,92.1"/>
</g>
<path class="st0" d="M166.9,16.8c-0.5,0-0.8,0.8-0.9,2.4l-2.5,39.2c-0.4,3.6-0.4,6-0.4,7.2c0,8.2,1.3,11.4,7.1,11.4
	c0.6,0,1.3-0.1,2-0.1c2,0,3,0.6,3,1.9c0,1.3-1.4,2.1-4.2,2.1c-2.6,0-6.2-0.4-10.7-0.4c-4,0-7.3,0.4-9.8,0.4s-3.8-0.6-3.8-2.1
	c0-1.2,0.8-1.9,2.4-1.9c1.4,0,2.3,0.1,2.8,0.1c5.7,0,5.8-5.5,6.9-20.5l2.5-43.9v-2.6c0-4.2-0.5-5.4-3.9-6c-4-0.8-6.4,0.1-6.4-2.2
	c0-1.2,0.8-1.7,2.1-1.7h20.7c1.1,0,1.9,0.1,2.3,1.2l20.8,51.8c0.4,1,0.9,1.5,1.3,1.5c0.5,0,0.9-0.4,1.3-1.4l20.7-50.9
	c0.6-1.4,0.9-2.2,2.5-2.2h20.4c1.5,0,2.3,0.5,2.3,1.7c0,2.8-3.8,1.3-7.7,2.6c-2.1,0.8-2.8,1.7-2.8,5.3c0,0.9,0.1,1.8,0.1,2.9
	l1.5,56.2c0.4,5.3,0.5,6.8,5.3,7.8c3.2,0.6,5.9-0.3,5.9,2.2c0,1.3-1.1,2.1-3.3,2.1c-3,0-7.8-0.8-14.4-0.8c-7.1,0-12,0.8-15,0.8
	c-2.1,0-3.3-0.8-3.3-2.1c0-1.2,0.9-1.9,2.4-1.9c7.3,0,8.5-1.4,8.5-7.8V66l-1.3-47.5c0-0.9-0.4-1.4-0.8-1.4c-0.4,0-0.5,0.5-0.9,1.3
	l-23.1,58.1c-0.5,1.2-1.5,1.9-2.5,1.9c-1.4,0-2.3-0.6-2.7-1.5L168,18.5C167.6,17.5,167.2,16.8,166.9,16.8"/>
<path class="st0" d="M263.9,32.7c1,0.3,1.9,0.2,1.9,1.1c0,0.4-0.3,0.6-1,0.6c-0.4,0-1.7-0.1-4-0.1c-1.9,0-3.5,0.2-4.4,0.2
	c-1,0-1.4-0.2-1.4-0.7c0-0.6,0.8-0.5,1.5-0.7c1.4-0.5,1.5-1.3,1.5-2.8V6.3c0-1.2-0.1-1.9-0.9-2.2c-0.9-0.3-2-0.1-2-1
	c0-0.4,0.3-0.6,1-0.6c0.3,0,1.7,0.1,4.3,0.1c1.5,0,2.9-0.1,4.2-0.1c0.9,0,1.3,0.2,1.3,0.6c0,0.6-0.6,0.6-1.5,0.8
	c-1.5,0.2-1.5,0.7-1.5,2.2v24.2C262.9,31.7,263,32.4,263.9,32.7"/>
<path class="st0" d="M271.1,16c0-1.1-0.2-1.3-0.8-1.5c-0.7-0.2-1.2,0-1.2-0.4c0-0.6,0.9-0.9,2.4-1.7c2-1.1,2.7-1.9,3-1.9
	c0.3,0,0.4,0.2,0.4,0.6v1.9c0,0.4,0.1,0.6,0.1,0.7c0,0.1,0.2,0.3,0.3,0.3c0.3,0,0.7-0.6,1.6-1.3c1.7-1.3,3.2-2.1,5.1-2.1
	c4.6,0,6.1,2.7,6.1,8.2v11.2c0,1.6,0,2.3,1,2.7c0.7,0.3,1.8-0.1,1.8,0.8c0,0.6-0.6,0.6-2,0.6c-0.7,0-1.6-0.1-2.7-0.1
	c-0.8,0-1.4,0.1-1.8,0.1c-0.4,0-1-0.1-1.8-0.1c-0.6,0-0.8-0.1-0.8-0.5c0-0.8,0.9-0.6,1.4-0.9c0.8-0.5,0.8-1.2,0.8-2.6V18.1
	c0-3.5-1-5.2-3.8-5.2c-3.3,0-4.7,1.9-4.7,5.9v12.2c0,1.3,0.3,1.9,1.1,2.1c0.7,0.2,1.3-0.1,1.3,0.6c0,0.5-0.3,0.6-0.8,0.6
	c-0.2,0-1.4-0.1-3.5-0.1c-2.2,0-3.4,0.1-3.7,0.1c-0.7,0-1-0.2-1-0.7c0-0.6,0.5-0.6,1.3-0.8c0.7-0.2,1-1,1-2.3V16z"/>
<path class="st0" d="M306,15.2c0,1.2-0.1,1.6-0.7,1.6c-0.9,0-0.9-0.9-1.4-2.1c-0.8-1.9-1.9-2.8-3.6-2.8c-2.2,0-3.8,1.5-3.8,3.4
	c0,0.7,0.2,1.3,0.5,1.8c1.2,1.8,3.9,2.6,6.7,4.5c2.3,1.6,3.5,3.6,3.5,6.1c0,4.4-3.4,7.3-8.5,7.3c-4.3,0-5.3-0.7-5.3-2.7v-3.3
	c0-1.2,0-1.8,0.7-1.8c0.6,0,0.9,0.4,1.3,1.3c1.3,3.1,2,5.3,4.7,5.3c2.1,0,3.6-1.6,3.6-4.1c0-1.7-0.6-3-1.8-4.1
	c-1.5-1.4-4.2-2.3-6.6-4.2c-1.2-1-1.9-2.4-1.9-4c0-3.7,3.2-6.5,7.9-6.5c3.3,0,4.8,0.5,4.8,1.5v2.4V15.2z"/>
<path class="st0" d="M312.6,15.3c0-1.6,0-2.3-1-2.8c-0.7-0.3-1.7,0.1-1.7-0.7c0-0.6,0.5-0.7,1.8-0.7c0.5,0,1,0.1,1.6,0.1
	c0.3,0,1,0,2.3,0c0.8,0,1.2,0.4,1.2,1.1v15.3c0,3.5,1,5.2,3.8,5.2c3.3,0,4.7-1.9,4.7-5.9V14.4c0-1.3-0.3-1.9-1.1-2.1
	c-0.7-0.1-1.3,0.1-1.3-0.6c0-0.5,0.2-0.7,0.7-0.7c0.4,0,0.8,0.1,1.4,0.1c1,0,2-0.1,3-0.1c1.2,0,1.4,0.4,1.4,1.3v17.1
	c0,1.1,0.2,1.3,0.8,1.5c0.7,0.2,1.3,0.1,1.3,0.5c0,0.6-0.9,0.9-2.4,1.7c-2,1.1-2.7,1.9-3,1.9c-0.3,0-0.4-0.2-0.4-0.6v-2.5
	c0-0.2-0.2-0.3-0.3-0.3c-0.3,0-0.7,0.6-1.6,1.3c-1.7,1.3-3.2,2-5.1,2c-4.6,0-6.1-2.7-6.1-8.2V15.3z"/>
<path class="st0" d="M336.7,16c0-1.1-0.2-1.3-0.8-1.5c-0.7-0.2-1.3,0-1.3-0.4c0-0.6,0.9-0.9,2.4-1.7c2-1.1,2.7-1.9,3-1.9
	c0.3,0,0.4,0.2,0.4,0.6v3.5c0,0.2,0.2,0.3,0.3,0.3c0.4,0,0.8-0.8,1.6-1.8c1.2-1.5,2.4-2.3,3.8-2.3c1.8,0,2.9,1.2,2.9,3.3
	c0,1.9-0.9,2.9-2.2,2.9c-1.3,0-1.8-0.5-2.1-1.8c-0.2-0.7-0.1-1.3-0.7-1.3c-1.8,0-3.2,2.7-3.2,7.5v9.6c0,1.3,0.3,1.9,1.1,2.1
	c0.7,0.2,1.3-0.1,1.3,0.6c0,0.5-0.2,0.6-0.7,0.6c-0.2,0-1.4-0.1-3.5-0.1c-2.2,0-3.4,0.1-3.7,0.1c-0.7,0-1.1-0.2-1.1-0.7
	c0-0.6,0.5-0.6,1.4-0.8c0.7-0.2,1-1,1-2.3V16z"/>
<path class="st0" d="M361.5,15.5c0-2.5-0.4-3.6-2-3.6c-1.6,0-3.3,1.4-3.8,3.6c-0.5,2.3-0.7,4.1-3,4.1c-0.9,0-1.3-0.5-1.3-1.7
	c0-1.3,0.8-2.8,2.4-4.4c2-1.9,4.4-2.9,7.1-2.9c4.3,0,5,1.4,5,5.1v12.1c0,2.5,0.1,3.5,1.4,3.5c1.4,0,1.4-1.6,2-1.6
	c0.3,0,0.5,0.3,0.5,0.7c0,1.8-2,4.1-4.3,4.1c-1.3,0-2.3-0.6-2.7-1.3c-0.7-1.4-0.9-2.2-1.4-2.2c-0.6,0-1.1,0.9-2.1,1.9
	c-1.2,1.3-2.5,1.9-3.9,1.9c-2.3,0-3.9-1.6-3.9-4.2c0-3.9,3.1-6.2,8.4-10.1c1.6-1.2,1.6-1.7,1.6-3.6V15.5z M361,21.4
	c-0.7,0-1.4,0.9-2.8,2.4c-1.6,1.6-2.4,3.5-2.4,4.8c0,1.7,1.1,2.8,2.4,2.8c2.1,0,3.5-2.3,3.5-6.5v-1.3
	C361.7,22.2,361.6,21.4,361,21.4"/>
<path class="st0" d="M373.1,16c0-1.1-0.2-1.3-0.8-1.5c-0.7-0.2-1.2,0-1.2-0.4c0-0.6,0.9-0.9,2.4-1.7c2-1.1,2.7-1.9,3-1.9
	c0.3,0,0.4,0.2,0.4,0.6v1.9c0,0.4,0.1,0.6,0.1,0.7c0,0.1,0.2,0.3,0.3,0.3c0.3,0,0.7-0.6,1.6-1.3c1.7-1.3,3.2-2.1,5.1-2.1
	c4.6,0,6.2,2.7,6.2,8.2v11.2c0,1.6,0,2.3,1,2.7c0.7,0.3,1.8-0.1,1.8,0.8c0,0.6-0.6,0.6-2,0.6c-0.7,0-1.6-0.1-2.7-0.1
	c-0.8,0-1.4,0.1-1.8,0.1c-0.4,0-1-0.1-1.8-0.1c-0.6,0-0.8-0.1-0.8-0.5c0-0.8,0.9-0.6,1.4-0.9c0.8-0.5,0.8-1.2,0.8-2.6V18.1
	c0-3.5-1-5.2-3.8-5.2c-3.3,0-4.7,1.9-4.7,5.9v12.2c0,1.3,0.3,1.9,1.1,2.1c0.7,0.2,1.3-0.1,1.3,0.6c0,0.5-0.3,0.6-0.8,0.6
	c-0.2,0-1.4-0.1-3.5-0.1c-2.2,0-3.4,0.1-3.7,0.1c-0.7,0-1-0.2-1-0.7c0-0.6,0.5-0.6,1.3-0.8c0.7-0.2,1-1,1-2.3V16z"/>
<path class="st0" d="M410,16c0,1.4-0.1,1.9-1,1.9c-0.9,0-1.6-0.7-2.1-2c-1-2.2-1.4-3.6-3-3.6c-2,0-4.2,3.6-4.2,8.8c0,6.8,3,11,6,11
	c1.2,0,2.2-0.6,3.1-1.7c0.8-1,0.8-2.1,1.5-2.1c0.4,0,0.5,0.2,0.5,0.8c0,0.5-0.3,1.5-1,2.6c-1.5,2.2-3.4,3.3-5.7,3.3
	c-4.8,0-9-5.1-9-12.1c0-7,4.4-12,9.9-12c2.4,0,4.2,0.6,4.7,1.1c0.3,0.3,0.4,0.9,0.4,1.9v1.8V16z"/>
<path class="st0" d="M420,21.3c-1.4,0-1.7,0.2-1.7,1.7c0,5.9,2.4,9.5,6,9.5c1.6,0,3-0.7,4.1-1.9c0.8-1,0.8-2.1,1.6-2.1
	c0.4,0,0.5,0.3,0.5,0.7c0,2.3-3.2,5.9-7.8,5.9c-5.1,0-9-4.8-9-11.6c0-7.6,4-12.7,9.5-12.7c4.3,0,7.2,3.2,7.2,8.7c0,1.8-0.1,2-2,2h-2
	H420z M420.1,13.9c-1.1,1.8-1.7,4-1.7,5.1c0,1,0.6,1.2,2.1,1.2c4.8,0,5.9-0.4,5.9-3.2c0-3.3-1.4-5.2-3.2-5.2
	C422.1,11.7,421,12.5,420.1,13.9"/>
<path class="st0" d="M275.4,78.2c-1.2,1.7-4.3,3.2-7.5,3.2c-3.6,0-6.5-1.5-8.9-4.6c-2.4-3.1-3.8-7.2-3.8-12
	c0-9.9,5.5-16.4,13.1-16.4c3.6,0,6.1,1,6.7,1.6c0.2,0.2,0.3,0.9,0.4,1.9l0.1,3.8c0,0.8,0.1,1.2,0.1,1.2c0,0.6-0.3,0.8-0.9,0.8
	c-1.2,0-1.4-1.3-2.1-3.2c-1.2-3.3-2.3-4.7-4.8-4.7c-4.4,0-7.2,4.8-7.2,13.5c0,10.8,3.1,16.6,7.5,16.6c2.3,0,3.2-1.3,3.2-4.3v-6.7
	c0-1.2-0.1-1.9-0.9-2.1c-1.1-0.3-2.1-0.1-2.1-0.9c0-0.5,0.6-0.6,1.8-0.6c0.7,0,2,0.1,3.9,0.1c2.2,0,3.4-0.1,3.7-0.1
	c0.6,0,0.9,0.3,0.9,0.7c0,0.7-0.6,0.7-1.3,0.8c-1.1,0.2-1.2,0.8-1.2,2.2v6.9C275.9,77,275.7,77.7,275.4,78.2"/>
<path class="st0" d="M283,62.4c0-1.1-0.2-1.3-0.8-1.5c-0.7-0.1-1.3,0-1.3-0.4c0-0.6,0.9-0.9,2.4-1.7c2-1.1,2.7-1.9,3-1.9
	c0.3,0,0.4,0.2,0.4,0.6v3.5c0,0.1,0.2,0.3,0.3,0.3c0.4,0,0.8-0.8,1.6-1.8c1.2-1.5,2.4-2.3,3.8-2.3c1.8,0,2.9,1.2,2.9,3.3
	c0,1.9-0.9,2.9-2.2,2.9c-1.3,0-1.8-0.5-2.1-1.8c-0.2-0.7-0.1-1.3-0.7-1.3c-1.8,0-3.2,2.7-3.2,7.5v9.6c0,1.3,0.3,1.9,1.1,2.1
	c0.7,0.2,1.3-0.1,1.3,0.6c0,0.5-0.2,0.6-0.7,0.6c-0.2,0-1.4,0-3.5,0c-2.2,0-3.4,0-3.7,0c-0.7,0-1.1-0.2-1.1-0.7
	c0-0.6,0.5-0.6,1.4-0.8c0.7-0.2,1-1,1-2.3V62.4z"/>
<path class="st0" d="M306.4,57.1c5,0,9.3,4.8,9.3,12.1c0,3.5-1,6.4-2.9,8.8c-1.8,2.2-4.2,3.4-6.3,3.4c-2,0-4.3-1.1-6.1-3
	c-2.2-2.3-3.3-5.3-3.3-9.2C297.2,62.2,301.6,57.1,306.4,57.1 M311.2,69.3c0-7-2.1-11.1-4.7-11.1c-2.6,0-4.6,3.9-4.6,10.7
	c0,6.8,2.1,10.8,4.7,10.8C309.2,79.8,311.2,75.9,311.2,69.3"/>
<path class="st0" d="M320.7,61.7c0-1.6,0-2.3-1-2.8c-0.7-0.3-1.7,0.1-1.7-0.7c0-0.6,0.5-0.7,1.8-0.7c0.5,0,1,0.1,1.6,0.1
	c0.3,0,1-0.1,2.3-0.1c0.8,0,1.2,0.4,1.2,1.1v15.3c0,3.5,1,5.2,3.8,5.2c3.3,0,4.7-1.9,4.7-5.9V60.8c0-1.3-0.3-1.9-1.1-2.1
	c-0.7-0.1-1.3,0.1-1.3-0.6c0-0.5,0.2-0.7,0.7-0.7c0.4,0,0.8,0.1,1.4,0.1c1,0,2-0.1,3.1-0.1c1.2,0,1.4,0.4,1.4,1.3v17.1
	c0,1.1,0.2,1.3,0.8,1.5c0.7,0.1,1.3,0.1,1.3,0.5c0,0.6-0.9,0.9-2.4,1.7c-2,1.1-2.7,1.9-3,1.9c-0.3,0-0.4-0.2-0.4-0.6v-2.5
	c0-0.1-0.2-0.2-0.3-0.2c-0.3,0-0.7,0.6-1.6,1.3c-1.7,1.3-3.2,2-5.1,2c-4.6,0-6.1-2.7-6.1-8.2V61.7z"/>
<path class="st0" d="M350.4,90.5c1.5,0.2,2.2,0,2.2,0.6c0,0.5-0.3,0.7-0.8,0.7c-0.3,0-1.9-0.1-4.8-0.1c-2.5,0-3.8,0.1-4.1,0.1
	c-0.7,0-1.1-0.2-1.1-0.7c0-0.4,0.3-0.6,1-0.6h0.3c1.2,0,1.7-0.8,1.7-2.5V62.8c0-1-0.1-1.4-0.8-1.5c-1.1-0.2-1.8,0.1-1.8-0.8
	c0-0.5,0.9-0.5,2.3-1.2c2.3-1.1,3.1-2.2,3.6-2.2c0.3,0,0.4,0.2,0.4,0.6v1.6c0,0.6,0,1,0.3,1c0.2,0,0.7-0.5,1.6-1.3
	c1.3-1.1,2.4-2,4.1-2c4,0,7.7,4.6,7.7,11.6c0,7.4-4.3,12.4-8.8,12.4c-1.6,0-3-0.5-4.5-1.4v7.9C348.9,89.7,349,90.3,350.4,90.5
	 M349,72.5c0,5,0.9,7.5,3.6,7.5c2.9,0,5-3.5,5-10.1c0-6.5-2-10-5.1-10c-2.6,0-3.5,1.9-3.5,5.6V72.5z"/>
<g>
	<path class="st0" d="M159.3,210.4h1.8v-10.9h-1.8v-2.4h11.8v4.5h-2.6v-2.1h-4.7v4.2h4.8v2.3h-4.8v4.5h4.7v-2.1h2.6v4.5h-11.8V210.4
		z"/>
	<path class="st0" d="M177,209.5c0-1.1,0.7-1.9,1.7-1.9c1.1,0,1.7,0.8,1.7,1.6c0,0.4-0.1,0.7-0.2,1c0.6,0.4,1.5,0.7,2.5,0.7
		c1.7,0,2.8-0.8,2.8-2.1c0-1.3-1.3-1.9-2.9-2.5c-2.9-1.1-5-2-5-4.9c0-2.5,2-4.5,5.2-4.5c3,0,5.2,1.5,5.2,3.4c0,1.1-0.7,1.8-1.6,1.8
		c-1.1,0-1.7-0.8-1.7-1.6c0-0.4,0.1-0.6,0.2-0.7c-0.4-0.3-1.1-0.5-2.1-0.5c-1.6,0-2.5,0.8-2.5,1.9c0,1.3,1.3,1.9,2.9,2.4
		c2.8,1,5,2,5,4.9c0,3-2.3,4.7-5.6,4.7C179.6,213.2,177,211.4,177,209.5z"/>
	<path class="st0" d="M197.1,210.4h2v-11h-2.9v2.5h-2.6v-4.8h13.7v4.8h-2.6v-2.5h-2.9v11h2v2.4h-6.6V210.4z"/>
	<path class="st0" d="M211.3,211.1c0-1.1,0.9-2,2-2c1.1,0,2,0.9,2,2c0,1.1-0.9,2-2,2C212.2,213.1,211.3,212.2,211.3,211.1z"/>
	<path class="st0" d="M239.1,210.4h2.8v-10.6l-2.6,0.6l-0.6-2.3l4.6-1.2h1.4v13.4h2.8v2.4h-8.3V210.4z"/>
	<path class="st0" d="M254.7,208.5c1.1,0,1.7,0.8,1.7,1.6c0,0.2,0,0.4-0.1,0.5c0.3,0.1,0.8,0.2,1.3,0.2c2.3,0,4.1-2.3,4.2-5.3
		c-0.9,1-2.4,1.6-3.8,1.6c-3.2,0-5.6-2.2-5.6-5c0-2.9,2.5-5.2,5.9-5.2c1.8,0,3.3,0.7,4.3,1.7c1.3,1.3,1.9,3.3,1.9,5.9
		c0,5.5-3,8.7-6.8,8.7c-1.4,0-2.6-0.4-3.5-1c-0.7-0.5-1.1-1.2-1.1-2C253.1,209,253.9,208.5,254.7,208.5z M261.7,202.1
		c0-0.8-0.4-1.5-1-2.1c-0.6-0.6-1.5-0.9-2.4-0.9c-1.8,0-3.1,1.3-3.1,2.8c0,1.7,1.3,2.7,3.3,2.7C260.2,204.7,261.7,203.6,261.7,202.1
		z"/>
	<path class="st0" d="M270,210.4h2.8v-10.6l-2.6,0.6l-0.6-2.3l4.6-1.2h1.4v13.4h2.8v2.4H270V210.4z"/>
	<path class="st0" d="M292.7,208.5c0-1-0.5-1.8-1.6-2.2c-0.6-0.2-1.5-0.4-2.6-0.4h-1v-2.4h1.1c1,0,1.9-0.2,2.5-0.5
		c0.8-0.4,1.3-1.1,1.3-2c0-1.3-1.4-1.9-2.9-1.9c-1,0-1.7,0.2-2.2,0.5c0.2,0.3,0.3,0.6,0.3,0.9c0,0.9-0.7,1.6-1.7,1.6
		c-0.9,0-1.7-0.8-1.7-1.9c0-0.4,0.2-1,0.6-1.5c0.8-1,2.3-2,4.8-2c3.1,0,5.6,1.8,5.6,4.1c0,1.3-0.7,2.5-1.8,3.2
		c-0.4,0.3-0.9,0.5-1.4,0.6c0.5,0.1,1,0.3,1.4,0.6c1.2,0.7,2.2,1.8,2.2,3.5c0,2.8-2.8,4.5-6,4.5c-2.3,0-4.3-0.9-5.3-2.2
		c-0.4-0.5-0.6-1-0.6-1.6c0-1,0.7-1.9,1.7-1.9c0.9,0,1.7,0.7,1.7,1.6c0,0.3-0.1,0.7-0.3,1c0.7,0.5,1.8,0.7,2.8,0.7
		C291.1,210.8,292.7,210,292.7,208.5z"/>
</g>
<g>
	<path class="st0" d="M38.9,152h1.6l5-13.3h-1.9V137h7.6v1.6h-1.9l5,13.3h1.6v1.7h-5.6V152h1.9l-1.5-4.1h-6.8l-1.5,4.1h2v1.6h-5.6
		V152z M50.1,146.3l-2.8-7.8l-2.9,7.8H50.1z"/>
	<path class="st0" d="M61.2,147.9v-9.2h-2.1V137h6.1v1.7H63v9.1c0,3,1.5,4.4,4.2,4.4c2.7,0,4.2-1.4,4.2-4.4v-9.1h-2.2V137h6.1v1.7
		h-2.1v9.1c0,3.9-2.3,6.1-6.1,6.1C63.4,153.9,61.2,151.8,61.2,147.9z"/>
	<path class="st0" d="M84.2,152h2.2v-13.4h-4.2v2.7h-1.8V137h13.8v4.3h-1.8v-2.7h-4.2V152h2.2v1.7h-6.4V152z"/>
	<path class="st0" d="M99.3,145.4c0-4.9,3.6-8.6,8.5-8.6c4.8,0,8.4,3.8,8.4,8.6c0,4.9-3.6,8.6-8.5,8.6
		C102.9,153.9,99.3,150.2,99.3,145.4z M114.2,145.4c0-3.9-2.7-6.9-6.5-6.9c-3.8,0-6.5,3-6.5,6.9c0,3.9,2.7,6.9,6.5,6.9
		C111.5,152.2,114.2,149.2,114.2,145.4z"/>
	<path class="st0" d="M139.2,135.2h1.6v23.5h-1.6V135.2z"/>
	<path class="st0" d="M163.6,152h2.1v-13.3h-2.1V137h6.2v1.7h-2.2v5.6h9.2v-5.6h-2.2V137h6.2v1.7h-2.1V152h2.1v1.7h-6.2V152h2.2v-6
		h-9.2v6h2.2v1.7h-6.2V152z"/>
	<path class="st0" d="M185.9,145.4c0-4.9,3.6-8.6,8.5-8.6c4.8,0,8.4,3.8,8.4,8.6c0,4.9-3.6,8.6-8.5,8.6
		C189.4,153.9,185.9,150.2,185.9,145.4z M200.8,145.4c0-3.9-2.7-6.9-6.5-6.9c-3.8,0-6.5,3-6.5,6.9c0,3.9,2.7,6.9,6.5,6.9
		C198.1,152.2,200.8,149.2,200.8,145.4z"/>
	<path class="st0" d="M207.5,152h2.2l0.6-13.3h-2.2V137h4l5.4,11.3L223,137h4v1.7h-2.2l0.6,13.3h2.1v1.7h-6.1V152h2.1l-0.4-11.6
		l-5.4,10.9h-0.5l-5.4-10.9l-0.4,11.6h2.1v1.7h-6.1V152z"/>
	<path class="st0" d="M232.9,152h2.1v-13.3h-2.1V137H245v4.1h-1.8v-2.4h-6.3v5.7h5.4v1.6h-5.4v6h6.3v-2.4h1.8v4.1h-12.1V152z"/>
	<path class="st0" d="M268.2,135.2h1.6v23.5h-1.6V135.2z"/>
	<path class="st0" d="M292.6,152h2.1v-13.3h-2.1V137h6.3c3.7,0,6,1.8,6,4.8c0,2.3-1.5,3.9-3.6,4.5l3.5,5.6h2v1.7h-3.3l-4.1-6.8
		c-0.3,0-0.6,0.1-1,0.1c-0.7,0-1.4,0-1.9-0.1v5.1h2.2v1.7h-6.2V152z M303.1,141.9c0-2.1-1.7-3.2-4.2-3.2h-2.2v6.5
		c0.5,0,1.2,0.1,2,0.1C301.2,145.3,303.1,144.1,303.1,141.9z"/>
	<path class="st0" d="M311.7,152h2.1v-13.3h-2.1V137h12.1v4.1H322v-2.4h-6.3v5.7h5.4v1.6h-5.4v6h6.3v-2.4h1.8v4.1h-12.1V152z"/>
	<path class="st0" d="M333.4,140.3V152h2.2v1.7h-6.1V152h2.1v-13.3h-2.1V137h3.8l9.6,12.7v-11h-2.2V137h6v1.7h-2v15l-1,0
		L333.4,140.3z"/>
	<path class="st0" d="M355.5,152h2.2v-13.4h-4.2v2.7h-1.8V137h13.8v4.3h-1.8v-2.7h-4.2V152h2.2v1.7h-6.4V152z"/>
	<path class="st0" d="M370.9,152h2.1v-13.3h-2.1V137H383v4.1h-1.8v-2.4h-6.3v5.7h5.4v1.6h-5.4v6h6.3v-2.4h1.8v4.1h-12.1V152z"/>
	<path class="st0" d="M388.6,152h2.1v-13.3h-2.1V137h6.3c3.7,0,6,1.8,6,4.8c0,2.3-1.5,3.9-3.6,4.5l3.5,5.6h2v1.7h-3.3l-4.1-6.8
		c-0.3,0-0.6,0.1-1,0.1c-0.7,0-1.4,0-1.9-0.1v5.1h2.2v1.7h-6.2V152z M399,141.9c0-2.1-1.7-3.2-4.2-3.2h-2.2v6.5c0.5,0,1.2,0.1,2,0.1
		C397.2,145.3,399,144.1,399,141.9z"/>
	<path class="st0" d="M407.6,150.5c0-1,0.6-1.6,1.3-1.6c0.8,0,1.3,0.6,1.3,1.2c0,0.5-0.2,0.8-0.4,1.1c0.6,0.6,1.8,1,3.3,1
		c2.2,0,3.6-1.1,3.6-2.9c0-1.7-1.6-2.5-3.5-3.2c-2.9-1.1-5-2.1-5-5c0-2.6,2-4.4,5.1-4.4c2.7,0,5,1.6,5,3.3c0,0.9-0.6,1.5-1.3,1.5
		c-0.8,0-1.3-0.6-1.3-1.3c0-0.4,0.2-0.7,0.4-1c-0.5-0.5-1.7-0.8-2.7-0.8c-2,0-3.2,1.1-3.2,2.6c0,1.8,1.6,2.5,3.7,3.3
		c2.7,1.1,4.8,2.1,4.8,4.9c0,2.9-2.3,4.7-5.5,4.7C409.9,153.9,407.6,152.1,407.6,150.5z"/>
</g>
<line class="st1" x1="0" y1="119.5" x2="458.6" y2="119.5"/>
<line class="st1" x1="0" y1="171.9" x2="458.6" y2="171.9"/>
</svg>
