<!-- Generator: Adobe Illustrator 23.0.4, SVG Export Plug-In  -->
<svg version="1.1" xmlns="http://www.w3.org/2000/svg" xmlns:xlink="http://www.w3.org/1999/xlink" x="0px" y="0px" width="402.5px"
	 height="105.1px" viewBox="0 0 402.5 105.1" style="enable-background:new 0 0 402.5 105.1;" xml:space="preserve">
<style type="text/css">
	.st0{fill:#FFFFFF;}
</style>
<defs>
</defs>
<g>
	<g>
		<path class="st0" d="M17.4,13.5c-0.3,0-0.5,0.6-0.5,1.4V65c0,9.4,0.6,12.2,6.9,12.2c0.5,0,1.1-0.1,2-0.1c2,0,3,0.5,3,1.8
			c0,1.4-1.4,2.2-4.2,2.2c-3,0-6.7-0.5-10.9-0.5c-3.8,0-7.2,0.5-10,0.5c-2.7,0-3.9-0.8-3.9-2.2c0-1.3,0.9-1.8,2.9-1.8h1.4
			c6.6,0,7.1-3.5,7.1-13.7V10.1c0-4.2-0.4-5.4-3.8-6C3.3,3.3,0.9,4.2,0.9,1.9c0-1.2,0.8-1.8,2.3-1.8h20.7c0.8,0,1.4,0.1,2.3,1.3
			l42.2,55.8c0.1,0.1,0.3,0.1,0.4,0.1c0.3,0,0.5-0.6,0.5-1.4V15.8c0-3.8,0-6.7-0.5-8.7C68,4.4,65.1,3.8,60,3.8
			c-1.6,0-2.8-0.8-2.8-1.8c0-1.2,1.3-1.9,4-1.9c3.2,0,6.8,0.4,10.9,0.4c4.2,0,7.4-0.5,9.7-0.5c2.3,0,3.5,0.9,3.5,2.1
			c0,1.3-0.6,1.7-2,1.7h-1.9c-5.8,0-6.3,3.7-6.3,13v64.5c0,1.7-1.1,3.2-2.5,3.2c-0.9,0-1.8-0.6-2.8-2.1l-52-68.8
			C17.7,13.5,17.5,13.5,17.4,13.5"/>
		<path class="st0" d="M100.9,92.1c-7.6,8.6-14.9,13-21.5,13c-5.6,0-9.1-3.2-9.1-8.3c0-3.8,3.2-6.9,7.2-6.9c1.8,0,3.7,0.9,5.3,2.9
			c1.8,2.1,2.8,5,5.7,5c5.2,0,8.6-8.1,8.6-23.7V10.2c0-4.5-0.5-5.4-4.2-6c-4.2-0.8-6.7,0.1-6.7-2.2c0-1,0.9-1.8,2.4-1.8
			c1.5,0,6.6,1,15.5,1c9,0,14.1-1,15.7-1c1.5,0,2.4,0.8,2.4,1.8c0,2.3-2.5,1.4-6.7,2.2c-3.7,0.6-4.2,1.5-4.2,6v54.3
			C111.3,75.5,108.2,83.9,100.9,92.1"/>
		<path class="st0" d="M138.8,16.8c-0.5,0-0.8,0.8-0.9,2.4l-2.5,39.2c-0.4,3.6-0.4,6-0.4,7.2c0,8.2,1.3,11.4,7.1,11.4
			c0.6,0,1.3-0.1,2-0.1c2,0,3,0.6,3,1.9c0,1.3-1.4,2.1-4.2,2.1c-2.6,0-6.2-0.4-10.7-0.4c-4,0-7.3,0.4-9.8,0.4s-3.8-0.6-3.8-2.1
			c0-1.2,0.8-1.9,2.4-1.9c1.4,0,2.3,0.1,2.8,0.1c5.7,0,5.8-5.5,6.9-20.5l2.5-43.9v-2.6c0-4.2-0.5-5.4-3.9-6c-4-0.8-6.4,0.1-6.4-2.2
			c0-1.2,0.8-1.7,2.1-1.7h20.7c1.1,0,1.9,0.1,2.3,1.2l20.8,51.8c0.4,1,0.9,1.5,1.3,1.5c0.5,0,0.9-0.4,1.3-1.4l20.7-50.9
			c0.6-1.4,0.9-2.2,2.5-2.2h20.4c1.5,0,2.3,0.5,2.3,1.7c0,2.8-3.8,1.3-7.7,2.6c-2.1,0.8-2.8,1.7-2.8,5.3c0,0.9,0.1,1.8,0.1,2.9
			l1.5,56.2c0.4,5.3,0.5,6.8,5.3,7.8c3.2,0.6,5.9-0.3,5.9,2.2c0,1.3-1.1,2.1-3.3,2.1c-3,0-7.8-0.8-14.4-0.8c-7.1,0-12,0.8-15,0.8
			c-2.1,0-3.3-0.8-3.3-2.1c0-1.2,0.9-1.9,2.4-1.9c7.3,0,8.5-1.4,8.5-7.8V66l-1.3-47.5c0-0.9-0.4-1.4-0.8-1.4c-0.4,0-0.5,0.5-0.9,1.3
			l-23.1,58.1c-0.5,1.2-1.5,1.9-2.5,1.9c-1.4,0-2.3-0.6-2.7-1.5L140,18.5C139.6,17.5,139.2,16.8,138.8,16.8"/>
	</g>
	<g>
		<path class="st0" d="M235.8,32.7c1,0.3,1.9,0.2,1.9,1.1c0,0.4-0.3,0.6-1,0.6c-0.4,0-1.7-0.1-4-0.1c-1.9,0-3.5,0.2-4.4,0.2
			c-1,0-1.4-0.2-1.4-0.7c0-0.6,0.8-0.5,1.5-0.7c1.4-0.5,1.5-1.3,1.5-2.8V6.3c0-1.2-0.1-1.9-0.9-2.2c-0.9-0.3-2-0.1-2-1
			c0-0.4,0.3-0.6,1-0.6c0.3,0,1.7,0.1,4.3,0.1c1.5,0,2.9-0.1,4.2-0.1c0.9,0,1.3,0.2,1.3,0.6c0,0.6-0.6,0.6-1.5,0.8
			c-1.5,0.2-1.5,0.7-1.5,2.2v24.2C234.9,31.7,235,32.4,235.8,32.7"/>
		<path class="st0" d="M243.1,16c0-1.1-0.2-1.3-0.8-1.5c-0.7-0.2-1.2,0-1.2-0.4c0-0.6,0.9-0.9,2.4-1.7c2-1.1,2.7-1.9,3-1.9
			c0.3,0,0.4,0.2,0.4,0.6v1.9c0,0.4,0.1,0.6,0.1,0.7c0,0.1,0.2,0.3,0.3,0.3c0.3,0,0.7-0.6,1.6-1.3c1.7-1.3,3.2-2.1,5.1-2.1
			c4.6,0,6.1,2.7,6.1,8.2v11.2c0,1.6,0,2.3,1,2.7c0.7,0.3,1.8-0.1,1.8,0.8c0,0.6-0.6,0.6-2,0.6c-0.7,0-1.6-0.1-2.7-0.1
			c-0.8,0-1.4,0.1-1.8,0.1c-0.4,0-1-0.1-1.8-0.1c-0.6,0-0.8-0.1-0.8-0.5c0-0.8,0.9-0.6,1.4-0.9c0.8-0.5,0.8-1.2,0.8-2.6V18.1
			c0-3.5-1-5.2-3.8-5.2c-3.3,0-4.7,1.9-4.7,5.9v12.2c0,1.3,0.3,1.9,1.1,2.1c0.7,0.2,1.3-0.1,1.3,0.6c0,0.5-0.3,0.6-0.8,0.6
			c-0.2,0-1.4-0.1-3.5-0.1c-2.2,0-3.4,0.1-3.7,0.1c-0.7,0-1-0.2-1-0.7c0-0.6,0.5-0.6,1.3-0.8c0.7-0.2,1-1,1-2.3V16z"/>
		<path class="st0" d="M278,15.2c0,1.2-0.1,1.6-0.7,1.6c-0.9,0-0.9-0.9-1.4-2.1c-0.8-1.9-1.9-2.8-3.6-2.8c-2.2,0-3.8,1.5-3.8,3.4
			c0,0.7,0.2,1.3,0.5,1.8c1.2,1.8,3.9,2.6,6.7,4.5c2.3,1.6,3.5,3.6,3.5,6.1c0,4.4-3.4,7.3-8.5,7.3c-4.3,0-5.3-0.7-5.3-2.7v-3.3
			c0-1.2,0-1.8,0.7-1.8c0.6,0,0.9,0.4,1.3,1.3c1.3,3.1,2,5.3,4.7,5.3c2.1,0,3.6-1.6,3.6-4.1c0-1.7-0.6-3-1.8-4.1
			c-1.5-1.4-4.2-2.3-6.6-4.2c-1.2-1-1.9-2.4-1.9-4c0-3.7,3.2-6.5,7.9-6.5c3.3,0,4.8,0.5,4.8,1.5v2.4V15.2z"/>
		<path class="st0" d="M284.5,15.3c0-1.6,0-2.3-1-2.8c-0.7-0.3-1.7,0.1-1.7-0.7c0-0.6,0.5-0.7,1.8-0.7c0.5,0,1,0.1,1.6,0.1
			c0.3,0,1,0,2.3,0c0.8,0,1.2,0.4,1.2,1.1v15.3c0,3.5,1,5.2,3.8,5.2c3.3,0,4.7-1.9,4.7-5.9V14.4c0-1.3-0.3-1.9-1.1-2.1
			c-0.7-0.1-1.3,0.1-1.3-0.6c0-0.5,0.2-0.7,0.7-0.7c0.4,0,0.8,0.1,1.4,0.1c1,0,2-0.1,3-0.1c1.2,0,1.4,0.4,1.4,1.3v17.1
			c0,1.1,0.2,1.3,0.8,1.5c0.7,0.2,1.3,0.1,1.3,0.5c0,0.6-0.9,0.9-2.4,1.7c-2,1.1-2.7,1.9-3,1.9c-0.3,0-0.4-0.2-0.4-0.6v-2.5
			c0-0.2-0.2-0.3-0.3-0.3c-0.3,0-0.7,0.6-1.6,1.3c-1.7,1.3-3.2,2-5.1,2c-4.6,0-6.1-2.7-6.1-8.2V15.3z"/>
		<path class="st0" d="M308.7,16c0-1.1-0.2-1.3-0.8-1.5c-0.7-0.2-1.3,0-1.3-0.4c0-0.6,0.9-0.9,2.4-1.7c2-1.1,2.7-1.9,3-1.9
			c0.3,0,0.4,0.2,0.4,0.6v3.5c0,0.2,0.2,0.3,0.3,0.3c0.4,0,0.8-0.8,1.6-1.8c1.2-1.5,2.4-2.3,3.8-2.3c1.8,0,2.9,1.2,2.9,3.3
			c0,1.9-0.9,2.9-2.2,2.9c-1.3,0-1.8-0.5-2.1-1.8c-0.2-0.7-0.1-1.3-0.7-1.3c-1.8,0-3.2,2.7-3.2,7.5v9.6c0,1.3,0.3,1.9,1.1,2.1
			c0.7,0.2,1.3-0.1,1.3,0.6c0,0.5-0.2,0.6-0.7,0.6c-0.2,0-1.4-0.1-3.5-0.1c-2.2,0-3.4,0.1-3.7,0.1c-0.7,0-1.1-0.2-1.1-0.7
			c0-0.6,0.5-0.6,1.4-0.8c0.7-0.2,1-1,1-2.3V16z"/>
		<path class="st0" d="M333.5,15.5c0-2.5-0.4-3.6-2-3.6c-1.6,0-3.3,1.4-3.8,3.6c-0.5,2.3-0.7,4.1-3,4.1c-0.9,0-1.3-0.5-1.3-1.7
			c0-1.3,0.8-2.8,2.4-4.4c2-1.9,4.4-2.9,7.1-2.9c4.3,0,5,1.4,5,5.1v12.1c0,2.5,0.1,3.5,1.4,3.5c1.4,0,1.4-1.6,2-1.6
			c0.3,0,0.5,0.3,0.5,0.7c0,1.8-2,4.1-4.3,4.1c-1.3,0-2.3-0.6-2.7-1.3c-0.7-1.4-0.9-2.2-1.4-2.2c-0.6,0-1.1,0.9-2.1,1.9
			c-1.2,1.3-2.5,1.9-3.9,1.9c-2.3,0-3.9-1.6-3.9-4.2c0-3.9,3.1-6.2,8.4-10.1c1.6-1.2,1.6-1.7,1.6-3.6V15.5z M332.9,21.4
			c-0.7,0-1.4,0.9-2.8,2.4c-1.6,1.6-2.4,3.5-2.4,4.8c0,1.7,1.1,2.8,2.4,2.8c2.1,0,3.5-2.3,3.5-6.5v-1.3
			C333.7,22.2,333.6,21.4,332.9,21.4"/>
		<path class="st0" d="M345,16c0-1.1-0.2-1.3-0.8-1.5c-0.7-0.2-1.2,0-1.2-0.4c0-0.6,0.9-0.9,2.4-1.7c2-1.1,2.7-1.9,3-1.9
			c0.3,0,0.4,0.2,0.4,0.6v1.9c0,0.4,0.1,0.6,0.1,0.7c0,0.1,0.2,0.3,0.3,0.3c0.3,0,0.7-0.6,1.6-1.3c1.7-1.3,3.2-2.1,5.1-2.1
			c4.6,0,6.2,2.7,6.2,8.2v11.2c0,1.6,0,2.3,1,2.7c0.7,0.3,1.8-0.1,1.8,0.8c0,0.6-0.6,0.6-2,0.6c-0.7,0-1.6-0.1-2.7-0.1
			c-0.8,0-1.4,0.1-1.8,0.1c-0.4,0-1-0.1-1.8-0.1c-0.6,0-0.8-0.1-0.8-0.5c0-0.8,0.9-0.6,1.4-0.9c0.8-0.5,0.8-1.2,0.8-2.6V18.1
			c0-3.5-1-5.2-3.8-5.2c-3.3,0-4.7,1.9-4.7,5.9v12.2c0,1.3,0.3,1.9,1.1,2.1c0.7,0.2,1.3-0.1,1.3,0.6c0,0.5-0.3,0.6-0.8,0.6
			c-0.2,0-1.4-0.1-3.5-0.1c-2.2,0-3.4,0.1-3.7,0.1c-0.7,0-1-0.2-1-0.7c0-0.6,0.5-0.6,1.3-0.8c0.7-0.2,1-1,1-2.3V16z"/>
		<path class="st0" d="M382,16c0,1.4-0.1,1.9-1,1.9c-0.9,0-1.6-0.7-2.1-2c-1-2.2-1.4-3.6-3-3.6c-2,0-4.2,3.6-4.2,8.8
			c0,6.8,3,11,6,11c1.2,0,2.2-0.6,3.1-1.7c0.8-1,0.8-2.1,1.5-2.1c0.4,0,0.5,0.2,0.5,0.8c0,0.5-0.3,1.5-1,2.6
			c-1.5,2.2-3.4,3.3-5.7,3.3c-4.8,0-9-5.1-9-12.1c0-7,4.4-12,9.9-12c2.4,0,4.2,0.6,4.7,1.1c0.3,0.3,0.4,0.9,0.4,1.9v1.8V16z"/>
		<path class="st0" d="M391.9,21.3c-1.4,0-1.7,0.2-1.7,1.7c0,5.9,2.4,9.5,6,9.5c1.6,0,3-0.7,4.1-1.9c0.8-1,0.8-2.1,1.6-2.1
			c0.4,0,0.5,0.3,0.5,0.7c0,2.3-3.2,5.9-7.8,5.9c-5.1,0-9-4.8-9-11.6c0-7.6,4-12.7,9.5-12.7c4.3,0,7.2,3.2,7.2,8.7c0,1.8-0.1,2-2,2
			h-2H391.9z M392.1,13.9c-1.1,1.8-1.7,4-1.7,5.1c0,1,0.6,1.2,2.1,1.2c4.8,0,5.9-0.4,5.9-3.2c0-3.3-1.4-5.2-3.2-5.2
			C394,11.7,393,12.5,392.1,13.9"/>
		<path class="st0" d="M247.4,78.2c-1.2,1.7-4.3,3.2-7.5,3.2c-3.6,0-6.5-1.5-8.9-4.6c-2.4-3.1-3.8-7.2-3.8-12
			c0-9.9,5.5-16.4,13.1-16.4c3.6,0,6.1,1,6.7,1.6c0.2,0.2,0.3,0.9,0.4,1.9l0.1,3.8c0,0.8,0.1,1.2,0.1,1.2c0,0.6-0.3,0.8-0.9,0.8
			c-1.2,0-1.4-1.3-2.1-3.2c-1.2-3.3-2.3-4.7-4.8-4.7c-4.4,0-7.2,4.8-7.2,13.5c0,10.8,3.1,16.6,7.5,16.6c2.3,0,3.2-1.3,3.2-4.3v-6.7
			c0-1.2-0.1-1.9-0.9-2.1c-1.1-0.3-2.1-0.1-2.1-0.9c0-0.5,0.6-0.6,1.8-0.6c0.7,0,2,0.1,3.9,0.1c2.2,0,3.4-0.1,3.7-0.1
			c0.6,0,0.9,0.3,0.9,0.7c0,0.7-0.6,0.7-1.3,0.8c-1.1,0.2-1.2,0.8-1.2,2.2v6.9C247.8,77,247.7,77.7,247.4,78.2"/>
		<path class="st0" d="M255,62.4c0-1.1-0.2-1.3-0.8-1.5c-0.7-0.1-1.3,0-1.3-0.4c0-0.6,0.9-0.9,2.4-1.7c2-1.1,2.7-1.9,3-1.9
			c0.3,0,0.4,0.2,0.4,0.6v3.5c0,0.1,0.2,0.3,0.3,0.3c0.4,0,0.8-0.8,1.6-1.8c1.2-1.5,2.4-2.3,3.8-2.3c1.8,0,2.9,1.2,2.9,3.3
			c0,1.9-0.9,2.9-2.2,2.9c-1.3,0-1.8-0.5-2.1-1.8c-0.2-0.7-0.1-1.3-0.7-1.3c-1.8,0-3.2,2.7-3.2,7.5v9.6c0,1.3,0.3,1.9,1.1,2.1
			c0.7,0.2,1.3-0.1,1.3,0.6c0,0.5-0.2,0.6-0.7,0.6c-0.2,0-1.4,0-3.5,0c-2.2,0-3.4,0-3.7,0c-0.7,0-1.1-0.2-1.1-0.7
			c0-0.6,0.5-0.6,1.4-0.8c0.7-0.2,1-1,1-2.3V62.4z"/>
		<path class="st0" d="M278.4,57.1c5,0,9.3,4.8,9.3,12.1c0,3.5-1,6.4-2.9,8.8c-1.8,2.2-4.2,3.4-6.3,3.4c-2,0-4.3-1.1-6.1-3
			c-2.2-2.3-3.3-5.3-3.3-9.2C269.2,62.2,273.6,57.1,278.4,57.1 M283.1,69.3c0-7-2.1-11.1-4.7-11.1c-2.6,0-4.6,3.9-4.6,10.7
			c0,6.8,2.1,10.8,4.7,10.8C281.2,79.8,283.1,75.9,283.1,69.3"/>
		<path class="st0" d="M292.7,61.7c0-1.6,0-2.3-1-2.8c-0.7-0.3-1.7,0.1-1.7-0.7c0-0.6,0.5-0.7,1.8-0.7c0.5,0,1,0.1,1.6,0.1
			c0.3,0,1-0.1,2.3-0.1c0.8,0,1.2,0.4,1.2,1.1v15.3c0,3.5,1,5.2,3.8,5.2c3.3,0,4.7-1.9,4.7-5.9V60.8c0-1.3-0.3-1.9-1.1-2.1
			c-0.7-0.1-1.3,0.1-1.3-0.6c0-0.5,0.2-0.7,0.7-0.7c0.4,0,0.8,0.1,1.4,0.1c1,0,2-0.1,3.1-0.1c1.2,0,1.4,0.4,1.4,1.3v17.1
			c0,1.1,0.2,1.3,0.8,1.5c0.7,0.1,1.3,0.1,1.3,0.5c0,0.6-0.9,0.9-2.4,1.7c-2,1.1-2.7,1.9-3,1.9c-0.3,0-0.4-0.2-0.4-0.6v-2.5
			c0-0.1-0.2-0.2-0.3-0.2c-0.3,0-0.7,0.6-1.6,1.3c-1.7,1.3-3.2,2-5.1,2c-4.6,0-6.1-2.7-6.1-8.2V61.7z"/>
		<path class="st0" d="M322.3,90.5c1.5,0.2,2.2,0,2.2,0.6c0,0.5-0.3,0.7-0.8,0.7c-0.3,0-1.9-0.1-4.8-0.1c-2.5,0-3.8,0.1-4.1,0.1
			c-0.7,0-1.1-0.2-1.1-0.7c0-0.4,0.3-0.6,1-0.6h0.3c1.2,0,1.7-0.8,1.7-2.5V62.8c0-1-0.1-1.4-0.8-1.5c-1.1-0.2-1.8,0.1-1.8-0.8
			c0-0.5,0.9-0.5,2.3-1.2c2.3-1.1,3.1-2.2,3.6-2.2c0.3,0,0.4,0.2,0.4,0.6v1.6c0,0.6,0,1,0.3,1c0.2,0,0.7-0.5,1.6-1.3
			c1.3-1.1,2.4-2,4.1-2c4,0,7.7,4.6,7.7,11.6c0,7.4-4.3,12.4-8.8,12.4c-1.6,0-3-0.5-4.5-1.4v7.9C320.9,89.7,321,90.3,322.3,90.5
			 M321,72.5c0,5,0.9,7.5,3.6,7.5c2.9,0,5-3.5,5-10.1c0-6.5-2-10-5.1-10c-2.6,0-3.5,1.9-3.5,5.6V72.5z"/>
	</g>
</g>
</svg>
